<?xml version="1.0" encoding="UTF-8" standalone="no"?>
<!DOCTYPE svg PUBLIC "-//W3C//DTD SVG 1.1//EN" "http://www.w3.org/Graphics/SVG/1.1/DTD/svg11.dtd">
<svg xmlns="http://www.w3.org/2000/svg" xmlns:xlink="http://www.w3.org/1999/xlink" version="1.1" width="436pt" height="423pt" viewBox="0 0 436 423">
<g enable-background="new">
<g>
<g>
<clipPath id="cp0">
<path transform="matrix(1,0,0,-1,-62,687)" d="M 0 0 L 595.2756 0 L 595.2756 841.8898 L 0 841.8898 Z "/>
</clipPath>
<g clip-path="url(#cp0)">
<path transform="matrix(1,0,0,1,-62,-154.88977)" stroke-width=".5" stroke-linecap="butt" stroke-miterlimit="3.864" stroke-linejoin="miter" fill="none" stroke="#221e1f" d="M 131.789 179.906 C 143.93 179.906 153.766 183.711 153.766 188.398 C 153.766 193.09 143.93 196.891 131.789 196.891 C 119.652 196.891 109.812 193.09 109.812 188.398 C 109.812 183.711 119.652 179.906 131.789 179.906 Z M 131.789 179.906 "/>
<path transform="matrix(1,0,0,1,-62,-154.88977)" d="M 124.602 260.664 L 187.411 260.664 L 187.411 274.664 L 124.602 274.664 Z " fill="#e7e7e7"/>
<path transform="matrix(1,0,0,1,-62,-154.88977)" stroke-width=".5" stroke-linecap="butt" stroke-miterlimit="3.864" stroke-linejoin="miter" fill="none" stroke="#221e1f" d="M 124.602 260.664 L 187.411 260.664 L 187.411 274.664 L 124.602 274.664 Z "/>
<path transform="matrix(1,0,0,1,-62,-154.88977)" d="M 391.707 356.855 L 467.508 356.855 L 467.508 370.855 L 391.707 370.855 Z " fill="#e7e7e7"/>
<path transform="matrix(1,0,0,1,-62,-154.88977)" stroke-width=".5" stroke-linecap="butt" stroke-miterlimit="3.864" stroke-linejoin="miter" fill="none" stroke="#221e1f" d="M 391.707 356.855 L 467.508 356.855 L 467.508 370.855 L 391.707 370.855 Z "/>
<path transform="matrix(1,0,0,1,-62,-154.88977)" d="M 391.707 260.738 L 467.508 260.738 L 467.508 274.738 L 391.707 274.738 Z " fill="#e7e7e7"/>
<path transform="matrix(1,0,0,1,-62,-154.88977)" stroke-width=".5" stroke-linecap="butt" stroke-miterlimit="3.864" stroke-linejoin="miter" fill="none" stroke="#221e1f" d="M 391.707 260.738 L 467.508 260.738 L 467.508 274.738 L 391.707 274.738 Z "/>
<path transform="matrix(1,0,0,1,-62,-154.88977)" d="M 218.777 473.555 L 303.10099 473.555 L 303.10099 493.555 L 218.777 493.555 Z " fill="#e7e7e7"/>
<path transform="matrix(1,0,0,1,-62,-154.88977)" stroke-width=".5" stroke-linecap="butt" stroke-miterlimit="3.864" stroke-linejoin="miter" fill="none" stroke="#221e1f" d="M 218.777 473.555 L 303.102 473.555 L 303.102 493.555 L 218.777 493.555 Z M 111.508 395.148 L 144.02 274.664 M 200.508 395.148 L 167.996 274.664 M 429.609 371.027 L 429.609 399.555 M 387.969 409.461 L 422.102 371.027 M 391.691 389.359 L 407.289 371.027 M 429.609 291.219 L 429.609 274.879 M 376.914 267.652 L 391.691 267.711 M 433.707 260.559 L 462.305 244.816 M 429.609 260.582 L 429.605 222.531 M 424.785 260.559 L 398.191 243.695 M 281.234 292.98 L 248.09 276.426 M 187.453 268.707 L 254.336 309.055 M 357.961 342.508 L 339.949 349.805 M 179.828 274.664 L 260.363 380.004 M 182.27 260.641 L 252.211 224.445 M 187.453 260.582 L 254.98 226.137 M 398.414 228.402 C 411.285 228.402 421.719 231.824 421.719 236.047 C 421.719 240.27 411.285 243.695 398.414 243.695 C 385.543 243.695 375.109 240.27 375.109 236.047 C 375.109 231.824 385.543 228.402 398.414 228.402 Z M 368.445 382.727 C 381.934 382.727 392.867 386.949 392.867 392.16 C 392.867 397.371 381.934 401.598 368.445 401.598 C 354.957 401.598 344.027 397.371 344.027 392.16 C 344.027 386.949 354.957 382.727 368.445 382.727 Z M 183.715 274.723 L 274.988 364.309 M 187.391 274.469 L 278.117 362.469 "/>
<path transform="matrix(1,0,0,1,-62,-154.88977)" d="M 274.988 364.309 L 319.391 337.609 L 363.789 364.309 L 319.391 390.859 " fill="#f1f0f0" fill-rule="evenodd"/>
<path transform="matrix(1,0,0,1,-62,-154.88977)" stroke-width=".5" stroke-linecap="butt" stroke-miterlimit="3.864" stroke-linejoin="miter" fill="none" stroke="#221e1f" d="M 274.988 364.309 L 319.391 337.609 L 363.789 364.309 L 319.391 390.859 Z M 274.988 364.309 "/>
<path transform="matrix(1,0,0,1,-62,-154.88977)" stroke-width=".5" stroke-linecap="butt" stroke-miterlimit="3.864" stroke-linejoin="miter" fill="none" stroke="#221e1f" d="M 361.438 362.859 L 391.742 362.859 "/>
<path transform="matrix(1,0,0,1,-62,-154.88977)" stroke-width=".5" stroke-linecap="butt" stroke-miterlimit="3.864" stroke-linejoin="miter" fill="none" stroke="#221e1f" d="M 361.484 365.758 L 391.789 365.758 "/>
<path transform="matrix(1,0,0,1,-62,-154.88977)" stroke-width=".5" stroke-linecap="butt" stroke-miterlimit="3.864" stroke-linejoin="miter" fill="none" stroke="#221e1f" d="M 427.879 335.586 L 427.879 356.945 "/>
<path transform="matrix(1,0,0,1,-62,-154.88977)" stroke-width=".5" stroke-linecap="butt" stroke-miterlimit="3.864" stroke-linejoin="miter" fill="none" stroke="#221e1f" d="M 431.336 335.723 L 431.336 356.945 "/>
<path transform="matrix(1,0,0,1,-62,-154.88977)" stroke-width=".5" stroke-linecap="butt" stroke-miterlimit="3.864" stroke-linejoin="miter" fill="none" stroke="#221e1f" d="M 391.707 260.738 L 338.219 226.32 "/>
<path transform="matrix(1,0,0,1,-62,-154.88977)" stroke-width=".5" stroke-linecap="butt" stroke-miterlimit="3.864" stroke-linejoin="miter" fill="none" stroke="#221e1f" d="M 396.793 260.723 L 341.008 224.547 "/>
<path transform="matrix(1,0,0,1,-62,-154.88977)" stroke-width=".5" stroke-linecap="butt" stroke-miterlimit="3.864" stroke-linejoin="miter" fill="none" stroke="#221e1f" d="M 396.664 274.754 L 338.633 309.055 "/>
<path transform="matrix(1,0,0,1,-62,-154.88977)" stroke-width=".5" stroke-linecap="butt" stroke-miterlimit="3.864" stroke-linejoin="miter" fill="none" stroke="#221e1f" d="M 391.707 274.738 L 335.715 307.418 "/>
<text fill="#201d1e" xml:space="preserve" transform="matrix(1 0 0 1 -62 -154.88977)" font-size="9" font-family="AkzidenzGroteskBE"><tspan y="271.0438" x="132.57579">E</tspan></text>
<text fill="#201d1e" xml:space="preserve" transform="matrix(1 0 0 1 -62 -154.88977)" font-size="9" font-family="AkzidenzGroteskBE"><tspan y="271.0438" x="138.3898">M</tspan></text>
<text fill="#201d1e" xml:space="preserve" transform="matrix(1 0 0 1 -62 -154.88977)" font-size="9" font-family="AkzidenzGroteskBE"><tspan y="271.0438" x="146.0758 151.8898 156.0208 162.7708 168.3958 174.20981">PLOYEE</tspan></text>
<path transform="matrix(1,0,0,1,-62,-154.88977)" stroke-width=".5" stroke-linecap="butt" stroke-miterlimit="3.864" stroke-linejoin="miter" fill="none" stroke="#221e1f" d="M 101.145 169.699 L 119.75 181.328 "/>
<path transform="matrix(1,0,0,1,-62,-154.88977)" stroke-width=".5" stroke-linecap="butt" stroke-miterlimit="3.864" stroke-linejoin="miter" fill="none" stroke="#221e1f" d="M 143.719 181.328 L 162.223 169.621 "/>
<path transform="matrix(1,0,0,1,-62,-154.88977)" stroke-width=".5" stroke-linecap="butt" stroke-miterlimit="3.864" stroke-linejoin="miter" fill="none" stroke="#221e1f" d="M 160.609 260.664 L 210.59 194.062 "/>
<path transform="matrix(1,0,0,1,-62,-154.88977)" stroke-width=".5" stroke-linecap="butt" stroke-miterlimit="3.864" stroke-linejoin="miter" fill="none" stroke="#221e1f" d="M 100.129 194.062 L 150.109 260.664 "/>
<path transform="matrix(1,0,0,1,-62,-154.88977)" stroke-width=".5" stroke-linecap="butt" stroke-miterlimit="3.864" stroke-linejoin="miter" fill="none" stroke="#221e1f" d="M 163.48 260.664 L 216.441 217.488 "/>
<path transform="matrix(1,0,0,1,-62,-154.88977)" stroke-width=".5" stroke-linecap="butt" stroke-miterlimit="3.864" stroke-linejoin="miter" fill="none" stroke="#221e1f" d="M 94.449 217.551 L 147.27 260.664 "/>
<text fill="#201d1e" xml:space="preserve" transform="matrix(1 0 0 1 -62 -154.88977)" font-size="9" font-family="AkzidenzGroteskBE"><tspan y="166.90299" x="71.5179 76.3959 81.0849 85.5849 92.5239">Fname</tspan></text>
<path transform="matrix(1,0,0,1,-62,-154.88977)" stroke-width=".5" stroke-linecap="butt" stroke-miterlimit="3.864" stroke-linejoin="miter" fill="none" stroke="#221e1f" d="M 131.789 172.68 L 131.789 179.809 "/>
<path transform="matrix(1,0,0,1,-62,-154.88977)" stroke-width=".5" stroke-linecap="butt" stroke-miterlimit="3.864" stroke-linejoin="miter" fill="none" stroke="#221e1f" d="M 131.789 155.695 C 143.926 155.695 153.766 159.496 153.766 164.188 C 153.766 168.875 143.926 172.68 131.789 172.68 C 119.652 172.68 109.812 168.875 109.812 164.188 C 109.812 159.496 119.652 155.695 131.789 155.695 Z M 131.789 155.695 "/>
<text fill="#201d1e" xml:space="preserve" transform="matrix(1 0 0 1 -62 -154.88977)" font-size="9" font-family="AkzidenzGroteskBE"><tspan y="166.90338" x="122.6039">M</tspan></text>
<text fill="#201d1e" xml:space="preserve" transform="matrix(1 0 0 1 -62 -154.88977)" font-size="9" font-family="AkzidenzGroteskBE"><tspan y="166.90338" x="129.9119 131.78389 136.47289 138.34488">init</tspan></text>
<path transform="matrix(1,0,0,1,-62,-154.88977)" stroke-width=".5" stroke-linecap="butt" stroke-miterlimit="3.864" stroke-linejoin="miter" fill="none" stroke="#221e1f" d="M 179.125 155.695 C 191.262 155.695 201.102 159.496 201.102 164.188 C 201.102 168.875 191.262 172.68 179.125 172.68 C 166.988 172.68 157.148 168.875 157.148 164.188 C 157.148 159.496 166.988 155.695 179.125 155.695 Z M 179.125 155.695 "/>
<text fill="#201d1e" xml:space="preserve" transform="matrix(1 0 0 1 -62 -154.88977)" font-size="9" font-family="AkzidenzGroteskBE"><tspan y="166.90169" x="166.37279 171.06179 175.75078 180.25078 187.18978">Lname</tspan></text>
<path transform="matrix(1,0,0,1,-62,-154.88977)" stroke-width=".5" stroke-linecap="butt" stroke-miterlimit="3.864" stroke-linejoin="miter" fill="none" stroke="#221e1f" d="M 131.055 196.703 L 152.613 260.664 "/>
<path transform="matrix(1,0,0,1,-62,-154.88977)" stroke-width=".5" stroke-linecap="butt" stroke-miterlimit="3.864" stroke-linejoin="miter" fill="none" stroke="#221e1f" d="M 158.469 260.664 L 179.125 196.797 "/>
<text fill="#201d1e" xml:space="preserve" transform="matrix(1 0 0 1 -62 -154.88977)" font-size="9" font-family="AkzidenzGroteskBE"><tspan y="191.11539" x="120.53919 126.911197 131.4112 138.35019">Name</tspan></text>
<path transform="matrix(1,0,0,1,-62,-154.88977)" stroke-width=".5" stroke-linecap="butt" stroke-miterlimit="3.864" stroke-linejoin="miter" fill="none" stroke="#221e1f" d="M 179.125 179.906 C 191.262 179.906 201.102 183.711 201.102 188.398 C 201.102 193.09 191.262 196.891 179.125 196.891 C 166.988 196.891 157.148 193.09 157.148 188.398 C 157.148 183.711 166.988 179.906 179.125 179.906 Z M 179.125 179.906 "/>
<text fill="#201d1e" xml:space="preserve" transform="matrix(1 0 0 1 -62 -154.88977)" font-size="9" font-family="AkzidenzGroteskBE"><tspan y="191.11489" x="163.0958 168.90979 173.96779 179.02579 181.84279 186.53179 190.84279">Address</tspan></text>
<path transform="matrix(1,0,0,1,-62,-154.88977)" stroke-width=".5" stroke-linecap="butt" stroke-miterlimit="3.864" stroke-linejoin="miter" fill="none" stroke="#221e1f" d="M 226.41 203.922 C 236.062 203.922 243.891 207.277 243.891 211.414 C 243.891 215.555 236.062 218.906 226.41 218.906 C 216.754 218.906 208.926 215.555 208.926 211.414 C 208.926 207.277 216.754 203.922 226.41 203.922 Z M 226.41 203.922 "/>
<text fill="#201d1e" xml:space="preserve" transform="matrix(1 0 0 1 -62 -154.88977)" font-size="9" font-family="AkzidenzGroteskBE"><tspan y="214.13088" x="219.2818 225.2848 229.9738">Sex</tspan></text>
<path transform="matrix(1,0,0,1,-62,-154.88977)" stroke-width=".5" stroke-linecap="butt" stroke-miterlimit="3.864" stroke-linejoin="miter" fill="none" stroke="#221e1f" d="M 226.922 179.906 C 239.059 179.906 248.898 183.711 248.898 188.398 C 248.898 193.09 239.059 196.891 226.922 196.891 C 214.785 196.891 204.945 193.09 204.945 188.398 C 204.945 183.711 214.785 179.906 226.922 179.906 Z M 226.922 179.906 "/>
<text fill="#201d1e" xml:space="preserve" transform="matrix(1 0 0 1 -62 -154.88977)" font-size="9" font-family="AkzidenzGroteskBE"><tspan y="191.11539" x="215.0688 221.2608 225.7608 227.6328 232.1328 234.9498">Salary</tspan></text>
<path transform="matrix(1,0,0,1,-62,-154.88977)" stroke-width=".5" stroke-linecap="butt" stroke-miterlimit="3.864" stroke-linejoin="miter" fill="none" stroke="#221e1f" d="M 84.52 203.922 C 94.176 203.922 102.004 207.277 102.004 211.414 C 102.004 215.555 94.176 218.906 84.52 218.906 C 74.863 218.906 67.039 215.555 67.039 211.414 C 67.039 207.277 74.863 203.922 84.52 203.922 Z M 84.52 203.922 "/>
<text fill="#201d1e" xml:space="preserve" transform="matrix(.9970345 0 0 1.0029743 -62 -154.88977)" font-size="8.97331" font-family="AkzidenzGroteskBE"><tspan y="213.4609" x="77.37185 83.35705 87.655269">Ssn</tspan></text>
<path transform="matrix(1,0,0,1,-62,-154.88977)" stroke-width=".5" stroke-linecap="butt" stroke-miterlimit="4" stroke-linejoin="miter" fill="none" stroke="#221e1f" d="M 76.953 215.488 L 92.09 215.488 "/>
<path transform="matrix(1,0,0,1,-62,-154.88977)" stroke-width=".5" stroke-linecap="butt" stroke-miterlimit="3.864" stroke-linejoin="miter" fill="none" stroke="#221e1f" d="M 84.367 179.906 C 96.504 179.906 106.344 183.711 106.344 188.398 C 106.344 193.09 96.504 196.891 84.367 196.891 C 72.227 196.891 62.387 193.09 62.387 188.398 C 62.387 183.711 72.227 179.906 84.367 179.906 Z M 84.367 179.906 "/>
<text fill="#201d1e" xml:space="preserve" transform="matrix(1 0 0 1 -62 -154.88977)" font-size="9" font-family="AkzidenzGroteskBE"><tspan y="191.11458" x="72.832599 79.0246 84.082599 88.582599 91.210597">Bdate</tspan><tspan y="374.12959" x="73.2466 79.249599 83.9386 88.9966 93.6856 96.5026 100.4356 102.3076 106.6186 111.4966 197.69861 203.70162 208.39061 213.44861 218.1376 220.9546 224.8876 226.7596 231.0706 235.7596">SupervisorSupervisee</tspan></text>
<path transform="matrix(1,0,0,1,-62,-154.88977)" d="M 111.609 395.148 L 156.008 368.512 L 200.406 395.148 L 156.008 421.789 " fill="#f1f0f0" fill-rule="evenodd"/>
<path transform="matrix(1,0,0,1,-62,-154.88977)" stroke-width=".5" stroke-linecap="butt" stroke-miterlimit="3.864" stroke-linejoin="miter" fill="none" stroke="#221e1f" d="M 111.609 395.148 L 156.008 368.512 L 200.406 395.148 L 156.008 421.789 Z M 111.609 395.148 "/>
<text fill="#201d1e" xml:space="preserve" transform="matrix(1 0 0 1 -62 -154.88977)" font-size="9" font-family="AkzidenzGroteskBE"><tspan y="397.86589" x="126.16419 132.35619 138.9262 144.74019 150.5542 156.5572 161.99321 164.24321 170.43521 172.68521 180.1822">SUPERVISION</tspan><tspan y="395.6519" x="103.07919">1</tspan><tspan y="396.65089" x="203.8342">N</tspan></text>
<path transform="matrix(1,0,0,1,-62,-154.88977)" stroke-width=".5" stroke-linecap="butt" stroke-miterlimit="3.864" stroke-linejoin="miter" fill="none" stroke="#221e1f" d="M 373.793 327.594 C 385.934 327.594 395.773 331.395 395.773 336.086 C 395.773 340.773 385.934 344.578 373.793 344.578 C 361.66 344.578 351.82 340.773 351.82 336.086 C 351.82 331.395 361.66 327.594 373.793 327.594 Z M 373.793 327.594 "/>
<text fill="#201d1e" xml:space="preserve" transform="matrix(1 0 0 1 -62 -154.88977)" font-size="9" font-family="AkzidenzGroteskBE"><tspan y="339.09278" x="361.8488 368.4098 373.28779 377.97679 380.79377">Hours</tspan><tspan y="367.3618" x="294.0788 303.0788 310.5758 316.9568 322.4018 328.4048 332.9048 340.4018">WORKS_ON</tspan></text>
<path transform="matrix(1,0,0,1,-62,-154.88977)" d="M 391.66 313.898 L 429.598 291.219 L 467.535 313.898 L 429.598 336.715 " fill="#f1f0f0" fill-rule="evenodd"/>
<path transform="matrix(1,0,0,1,-62,-154.88977)" stroke-width=".5" stroke-linecap="butt" stroke-miterlimit="3.864" stroke-linejoin="miter" fill="none" stroke="#221e1f" d="M 391.66 313.898 L 429.598 291.219 L 467.535 313.898 L 429.598 336.715 Z M 391.66 313.898 "/>
<text fill="#201d1e" xml:space="preserve" transform="matrix(1 0 0 1 -62 -154.88977)" font-size="9" font-family="AkzidenzGroteskBE"><tspan y="316.6829" x="404.8758 411.8148 419.3118 425.6838 430.5618 436.75379 444.2508 448.7598">CONTROLS</tspan></text>
<text fill="#201d1e" xml:space="preserve" transform="matrix(1 0 0 1 -62 -154.88977)" font-size="9" font-family="AkzidenzGroteskBE"><tspan y="356.4089" x="275.0778">M</tspan></text>
<text fill="#201d1e" xml:space="preserve" transform="matrix(1 0 0 1 -62 -154.88977)" font-size="9" font-family="AkzidenzGroteskBE"><tspan y="358.4069" x="359.3448">N</tspan><tspan y="377.49589" x="260.6508">1</tspan></text>
<path transform="matrix(1,0,0,1,-62,-154.88977)" d="M 194.887 419.289 L 260.363 380.004 L 325.699 419.289 L 260.363 458.574 " fill="#f1f0f0" fill-rule="evenodd"/>
<path transform="matrix(1,0,0,1,-62,-154.88977)" stroke-width=".5" stroke-linecap="butt" stroke-miterlimit="3.864" stroke-linejoin="miter" fill="none" stroke="#221e1f" d="M 194.887 419.289 L 260.363 380.004 L 325.699 419.289 L 260.363 458.574 Z M 194.887 419.289 "/>
<path transform="matrix(1,0,0,1,-62,-154.88977)" stroke-width=".5" stroke-linecap="butt" stroke-miterlimit="3.864" stroke-linejoin="miter" fill="none" stroke="#221e1f" d="M 203.66 419.152 L 260.227 385.27 L 316.926 419.152 L 260.227 453.309 Z M 203.66 419.152 "/>
<text fill="#201d1e" xml:space="preserve" transform="matrix(1 0 0 1 -62 -154.88977)" font-size="9" font-family="AkzidenzGroteskBE"><tspan y="422.52488" x="221.8048 228.36579 234.1798 239.99379 245.8078 252.5578 259.1188 264.9328 271.3048 276.0028 282.0058 286.5058 294.0028">DEPENDENTS_OF</tspan></text>
<path transform="matrix(1,0,0,1,-62,-154.88977)" stroke-width=".5" stroke-linecap="butt" stroke-miterlimit="3.864" stroke-linejoin="miter" fill="none" stroke="#221e1f" d="M 356.547 396.367 L 380.398 396.367 "/>
<text fill="#201d1e" xml:space="preserve" transform="matrix(1 0 0 1 -62 -154.88977)" font-size="9" font-family="AkzidenzGroteskBE"><tspan y="394.6869" x="357.1338 363.5058 368.0058 374.9448">Name</tspan></text>
<path transform="matrix(1,0,0,1,-62,-154.88977)" stroke-width=".5" stroke-linecap="butt" stroke-miterlimit="3.864" stroke-linejoin="miter" fill="none" stroke="#221e1f" d="M 429.609 399.555 C 445.883 399.555 459.078 403.355 459.078 408.047 C 459.078 412.734 445.883 416.535 429.609 416.535 C 413.332 416.535 400.137 412.734 400.137 408.047 C 400.137 403.355 413.332 399.555 429.609 399.555 Z M 429.609 399.555 "/>
<text fill="#201d1e" xml:space="preserve" transform="matrix(1 0 0 1 -62 -154.88977)" font-size="9" font-family="AkzidenzGroteskBE"><tspan y="410.7599" x="413.1948 417.8838 422.76179 427.45079 431.95079 434.57878 436.45079 441.32878">Location</tspan><tspan y="343.74589" x="434.3808">N</tspan><tspan y="291.87889" x="432.8418">1</tspan><tspan y="305.04588" x="252.66179">1</tspan><tspan y="303.04789" x="331.8888">1</tspan><tspan y="366.83988" x="409.78379 415.59779 421.78977 428.7288 432.48179 438.10679 444.6768">PROJECT</tspan><tspan y="270.8639" x="400.22578 406.78678 412.60078 417.66777 423.48176 429.48475">DEPART</tspan></text>
<text fill="#201d1e" xml:space="preserve" transform="matrix(1 0 0 1 -62 -154.88977)" font-size="9" font-family="AkzidenzGroteskBE"><tspan y="270.8639" x="434.36274">M</tspan></text>
<text fill="#201d1e" xml:space="preserve" transform="matrix(1 0 0 1 -62 -154.88977)" font-size="9" font-family="AkzidenzGroteskBE"><tspan y="270.8639" x="442.04875 447.86274 454.23475">ENT</tspan></text>
<path transform="matrix(1,0,0,1,-62,-154.88977)" stroke-width=".5" stroke-linecap="butt" stroke-miterlimit="3.864" stroke-linejoin="miter" fill="none" stroke="#221e1f" d="M 429.555 204.023 C 446.219 204.023 459.73 207.613 459.73 212.043 C 459.73 216.473 446.219 220.062 429.555 220.062 C 412.887 220.062 399.375 216.473 399.375 212.043 C 399.375 207.613 412.887 204.023 429.555 204.023 Z M 429.555 204.023 "/>
<path transform="matrix(1,0,0,1,-62,-154.88977)" stroke-width=".5" stroke-linecap="butt" stroke-miterlimit="3.864" stroke-linejoin="miter" fill="none" stroke="#221e1f" d="M 429.555 201.555 C 449.418 201.555 465.523 206.25 465.523 212.043 C 465.523 217.836 449.418 222.531 429.555 222.531 C 409.688 222.531 393.582 217.836 393.582 212.043 C 393.582 206.25 409.688 201.555 429.555 201.555 Z M 429.555 201.555 "/>
<text fill="#201d1e" xml:space="preserve" transform="matrix(1 0 0 1 -62 -154.88977)" font-size="9" font-family="AkzidenzGroteskBE"><tspan y="214.75789" x="410.9888 415.6778 420.5558 425.24479 429.74479 432.37278 434.24479 439.12278 443.81178">Locations</tspan></text>
<path transform="matrix(1,0,0,1,-62,-154.88977)" stroke-width=".5" stroke-linecap="butt" stroke-miterlimit="3.864" stroke-linejoin="miter" fill="none" stroke="#221e1f" d="M 387.016 240.184 L 409.816 240.184 "/>
<text fill="#201d1e" xml:space="preserve" transform="matrix(1 0 0 1 -62 -154.88977)" font-size="9" font-family="AkzidenzGroteskBE"><tspan y="238.45688" x="387.1598 393.5318 398.0318 404.9708">Name</tspan></text>
<clipPath id="cp1">
<path transform="matrix(1,0,0,1,-62,-154.88977)" d="M 437 227 L 486.633 227 L 486.633 246 L 437 246 Z "/>
</clipPath>
<g clip-path="url(#cp1)">
<path transform="matrix(1,0,0,1,-62,-154.88977)" stroke-width=".5" stroke-linecap="butt" stroke-miterlimit="3.864" stroke-linejoin="miter" fill="none" stroke="#221e1f" d="M 462.383 227.594 C 475.637 227.594 486.383 231.398 486.383 236.094 C 486.383 240.789 475.637 244.594 462.383 244.594 C 449.129 244.594 438.383 240.789 438.383 236.094 C 438.383 231.398 449.129 227.594 462.383 227.594 Z M 462.383 227.594 "/>
<path transform="matrix(1,0,0,1,-62,-154.88977)" stroke-width=".5" stroke-linecap="butt" stroke-miterlimit="3.864" stroke-linejoin="miter" fill="none" stroke="#221e1f" d="M 446.609 240.43 L 478.156 240.43 "/>
<text fill="#201d1e" xml:space="preserve" transform="matrix(1 0 0 1 -62 -154.88977)" font-size="9" font-family="AkzidenzGroteskBE"><tspan y="238.70189" x="447.1048 453.4768 458.1658 465.1048 470.1628 474.8518">Number</tspan></text>
</g>
<path transform="matrix(1,0,0,1,-62,-154.88977)" stroke-width=".5" stroke-linecap="butt" stroke-miterlimit="3.864" stroke-linejoin="miter" fill="none" stroke="#221e1f" d="M 365.598 406.934 C 383.25 406.934 397.562 410.961 397.562 415.926 C 397.562 420.891 383.25 424.918 365.598 424.918 C 347.941 424.918 333.629 420.891 333.629 415.926 C 333.629 410.961 347.941 406.934 365.598 406.934 Z M 365.598 406.934 "/>
<path transform="matrix(1,0,0,1,-62,-154.88977)" stroke-width=".5" stroke-linecap="butt" stroke-miterlimit="3.864" stroke-linejoin="miter" fill="none" stroke="#221e1f" d="M 349.824 420.262 L 381.367 420.262 "/>
<text fill="#201d1e" xml:space="preserve" transform="matrix(1 0 0 1 -62 -154.88977)" font-size="9" font-family="AkzidenzGroteskBE"><tspan y="418.53489" x="350.3118 356.6838 361.3728 368.3118 373.3698 378.0588">Number</tspan></text>
<path transform="matrix(1,0,0,1,-62,-154.88977)" stroke-width=".5" stroke-linecap="butt" stroke-dasharray="2,2" stroke-miterlimit="3.864" stroke-linejoin="miter" fill="none" stroke="#221e1f" d="M 275.07 267.621 C 275.07 261.949 298 257.09 326.078 257.09 C 354.027 257.09 376.977 261.949 376.977 267.621 C 376.977 273.289 354.027 278.016 326.078 278.016 C 298 278.016 275.07 273.289 275.07 267.621 Z M 275.07 267.621 "/>
<text fill="#201d1e" xml:space="preserve" transform="matrix(1 0 0 1 -62 -154.88977)" font-size="9" font-family="AkzidenzGroteskBE"><tspan y="270.2678" x="284.9768 291.34883 296.0378 302.9768 308.03483 312.72383 315.5408 320.0408 324.9188 327.3578 331.8578 336.54679 343.48579 348.5438 350.4158 355.2938 359.2268 363.9158 368.6048">Number_of_employees</tspan></text>
<path transform="matrix(1,0,0,1,-62,-154.88977)" d="M 254.336 309.055 L 296.484 283.703 L 338.633 309.055 L 296.484 334.402 " fill="#f1f0f0" fill-rule="evenodd"/>
<path transform="matrix(1,0,0,1,-62,-154.88977)" stroke-width=".5" stroke-linecap="butt" stroke-miterlimit="3.864" stroke-linejoin="miter" fill="none" stroke="#221e1f" d="M 254.336 309.055 L 296.484 283.703 L 338.633 309.055 L 296.484 334.402 Z M 254.336 309.055 "/>
<text fill="#201d1e" xml:space="preserve" transform="matrix(1 0 0 1 -62 -154.88977)" font-size="9" font-family="AkzidenzGroteskBE"><tspan y="311.7689" x="274.4588">M</tspan></text>
<text fill="#201d1e" xml:space="preserve" transform="matrix(1 0 0 1 -62 -154.88977)" font-size="9" font-family="AkzidenzGroteskBE"><tspan y="311.7689" x="281.7668 287.5808 293.95283 299.58683 307.27284 312.89784">ANAGES</tspan></text>
<path transform="matrix(1,0,0,1,-62,-154.88977)" stroke-width=".5" stroke-linecap="butt" stroke-miterlimit="3.864" stroke-linejoin="miter" fill="none" stroke="#221e1f" d="M 235.75 257.734 C 249.004 257.734 259.75 262.207 259.75 267.723 C 259.75 273.238 249.004 277.711 235.75 277.711 C 222.496 277.711 211.75 273.238 211.75 267.723 C 211.75 262.207 222.496 257.734 235.75 257.734 Z M 235.75 257.734 "/>
<text fill="#201d1e" xml:space="preserve" transform="matrix(1 0 0 1 -62 -154.88977)" font-size="9" font-family="AkzidenzGroteskBE"><tspan y="271.0388" x="217.36679 223.3698 226.1868 230.6868 233.5038 236.1318 240.6318 245.6898 250.1898 252.81781">Start_date</tspan></text>
<path transform="matrix(1,0,0,1,-62,-154.88977)" d="M 252.211 224.445 L 296.609 197.848 L 341.008 224.547 L 296.609 250.996 " fill="#f1f0f0" fill-rule="evenodd"/>
<path transform="matrix(1,0,0,1,-62,-154.88977)" stroke-width=".5" stroke-linecap="butt" stroke-miterlimit="3.864" stroke-linejoin="miter" fill="none" stroke="#221e1f" d="M 252.211 224.445 L 296.609 197.848 L 341.008 224.547 L 296.609 250.996 Z M 252.211 224.445 "/>
<text fill="#201d1e" xml:space="preserve" transform="matrix(1 0 0 1 -62 -154.88977)" font-size="9" font-family="AkzidenzGroteskBE"><tspan y="227.13579" x="268.0528 277.0528 284.5498 290.9308 296.3758 302.37879 306.87879 311.75679 319.25379">WORKS_FOR</tspan><tspan y="220.80879" x="336.83979">1</tspan><tspan y="221.51079" x="247.07379">N</tspan></text>
<path transform="matrix(1,0,0,1,-62,-154.88977)" stroke-width=".5" stroke-linecap="butt" stroke-miterlimit="3.864" stroke-linejoin="miter" fill="none" stroke="#221e1f" d="M 236.203 493.641 L 184.914 512.832 "/>
<path transform="matrix(1,0,0,1,-62,-154.88977)" stroke-width=".5" stroke-linecap="butt" stroke-miterlimit="3.864" stroke-linejoin="miter" fill="none" stroke="#221e1f" d="M 292.723 493.641 L 330.992 510.805 "/>
<path transform="matrix(1,0,0,1,-62,-154.88977)" stroke-width=".5" stroke-linecap="butt" stroke-miterlimit="3.864" stroke-linejoin="miter" fill="none" stroke="#221e1f" d="M 264.859 493.711 L 274.215 509.805 "/>
<path transform="matrix(1,0,0,1,-62,-154.88977)" stroke-width=".5" stroke-linecap="butt" stroke-miterlimit="3.864" stroke-linejoin="miter" fill="none" stroke="#221e1f" d="M 216.426 511.473 L 250.609 493.562 "/>
<path transform="matrix(1,0,0,1,-62,-154.88977)" stroke-width=".5" stroke-linecap="butt" stroke-miterlimit="3.864" stroke-linejoin="miter" fill="none" stroke="#221e1f" d="M 262.008 457.652 L 262.008 473.504 "/>
<path transform="matrix(1,0,0,1,-62,-154.88977)" stroke-width=".5" stroke-linecap="butt" stroke-miterlimit="3.864" stroke-linejoin="miter" fill="none" stroke="#221e1f" d="M 258.809 457.652 L 258.809 473.504 "/>
<text fill="#201d1e" xml:space="preserve" transform="matrix(1 0 0 1 -62 -154.88977)" font-size="9" font-family="AkzidenzGroteskBE"><tspan y="467.3488" x="264.6998">N</tspan></text>
<path transform="matrix(1,0,0,1,-62,-154.88977)" stroke-width=".5" stroke-linecap="butt" stroke-miterlimit="3.864" stroke-linejoin="miter" fill="none" stroke="#221e1f" d="M 221.777 476.555 L 300.10099 476.555 L 300.10099 490.555 L 221.777 490.555 Z "/>
<text fill="#201d1e" xml:space="preserve" transform="matrix(1 0 0 1 -62 -154.88977)" font-size="9" font-family="AkzidenzGroteskBE"><tspan y="486.5558" x="232.9008 239.46179 245.2758 251.0898 256.90379 263.65379 270.21479 276.02879 282.4008">DEPENDENT</tspan></text>
<path transform="matrix(1,0,0,1,-62,-154.88977)" stroke-width=".5" stroke-linecap="butt" stroke-miterlimit="3.864" stroke-linejoin="miter" fill="none" stroke="#221e1f" d="M 215.773 511.473 C 226.5 511.473 235.195 515.199 235.195 519.797 C 235.195 524.395 226.5 528.121 215.773 528.121 C 205.043 528.121 196.348 524.395 196.348 519.797 C 196.348 515.199 205.043 511.473 215.773 511.473 Z M 215.773 511.473 "/>
<text fill="#201d1e" xml:space="preserve" transform="matrix(1 0 0 1 -62 -154.88977)" font-size="9" font-family="AkzidenzGroteskBE"><tspan y="522.5019" x="208.64479 214.6478 219.33679">Sex</tspan></text>
<path transform="matrix(1,0,0,1,-62,-154.88977)" stroke-width=".5" stroke-linecap="butt" stroke-miterlimit="3.864" stroke-linejoin="miter" fill="none" stroke="#221e1f" d="M 273.562 509.805 C 292.02 509.805 306.977 513.906 306.977 518.961 C 306.977 524.02 292.02 528.121 273.562 528.121 C 255.109 528.121 240.152 524.02 240.152 518.961 C 240.152 513.906 255.109 509.805 273.562 509.805 Z M 273.562 509.805 "/>
<text fill="#201d1e" xml:space="preserve" transform="matrix(1 0 0 1 -62 -154.88977)" font-size="9" font-family="AkzidenzGroteskBE"><tspan y="521.6679" x="255.9178 262.1098 263.9818 266.7988 269.4268 274.11579 278.61579 283.6738 288.1738 290.8018">Birth_date</tspan></text>
<path transform="matrix(1,0,0,1,-62,-154.88977)" stroke-width=".5" stroke-linecap="butt" stroke-miterlimit="3.864" stroke-linejoin="miter" fill="none" stroke="#221e1f" d="M 345.34 509.805 C 363.793 509.805 378.75 513.906 378.75 518.961 C 378.75 524.02 363.793 528.121 345.34 528.121 C 326.891 528.121 311.934 524.02 311.934 518.961 C 311.934 513.906 326.891 509.805 345.34 509.805 Z M 345.34 509.805 "/>
<text fill="#201d1e" xml:space="preserve" transform="matrix(1 0 0 1 -62 -154.88977)" font-size="9" font-family="AkzidenzGroteskBE"><tspan y="521.6689" x="321.8058 327.80879 332.49778 334.36979 338.86979 341.49778 343.36979 348.24778 352.93678 357.24778 361.93678 363.80879">Relationship</tspan></text>
<path transform="matrix(1,0,0,1,-62,-154.88977)" stroke-width=".5" stroke-linecap="butt" stroke-miterlimit="3.864" stroke-linejoin="miter" fill="none" stroke="#221e1f" d="M 169.262 510.633 C 181.484 510.633 191.395 514.551 191.395 519.379 C 191.395 524.207 181.484 528.121 169.262 528.121 C 157.035 528.121 147.125 524.207 147.125 519.379 C 147.125 514.551 157.035 510.633 169.262 510.633 Z M 169.262 510.633 "/>
<path transform="matrix(1,0,0,1,-62,-154.88977)" stroke-width=".5" stroke-linecap="butt" stroke-dasharray="2,2" stroke-miterlimit="3.864" stroke-linejoin="miter" fill="none" stroke="#221e1f" d="M 157.883 523.363 L 180.637 523.363 "/>
<text fill="#201d1e" xml:space="preserve" transform="matrix(1 0 0 1 -62 -154.88977)" font-size="9" font-family="AkzidenzGroteskBE"><tspan y="521.8569" x="158.0098 164.38179 168.88179 175.82079">Name</tspan></text>
<path transform="matrix(1,0,0,1,-62,-154.88977)" stroke-width=".5" stroke-linecap="butt" stroke-miterlimit="3.864" stroke-linejoin="miter" fill="none" stroke="#221e1f" d="M 84.363 155.695 C 96.504 155.695 106.344 159.496 106.344 164.188 C 106.344 168.875 96.504 172.68 84.363 172.68 C 72.227 172.68 62.387 168.875 62.387 164.188 C 62.387 159.496 72.227 155.695 84.363 155.695 Z M 84.363 155.695 "/>
<text fill="#201d1e" xml:space="preserve" transform="matrix(1 0 0 1 -62 -154.88977)" font-size="9" font-family="AkzidenzGroteskBE"><tspan y="556.3688" x="62.137796 67.9518 72.6408 75.0798 80.5158 86.3298 88.76881 92.89081 97.201808 101.89081 106.57981 113.518817 118.018817 120.45782 125.14682 127.01882 131.51883 136.39684 139.21384 143.71384 150.65283 153.09183 155.90883 160.59783 163.41483 165.85382 168.48183 173.17082 177.85982 180.29882 186.30182 192.67382 199.80182 205.42682 211.24082 217.61281 223.23781 225.6768 230.3658 234.8658 237.4938 241.9938 246.6828 251.1828 255.3048 259.9938 261.4968 263.9358 268.81379 273.50279 278.19178 280.63078 285.31977 287.19178 291.69178 296.56977 299.38676 303.88676 310.82575 317.76475 322.26475 324.89274 326.76475 331.07575 333.51475 338.20375 342.89274 345.52073 350.02073 352.6487 354.52073 359.20973 363.8987 366.3377 368.20973 372.33174 374.77073 376.64274 381.33174 383.95973 386.7767 391.4657 396.1547 400.8437 405.1547 409.8437 414.53269 416.97169 421.84968 424.66667 429.16667 433.85566 438.54466 443.04466 444.91667 446.78868 450.72169 453.16069 455.78868 460.47767 463.29466 467.98365 472.67265 477.55064 482.23963 486.92863 491.6176 494.2456">An ER schema diagram for the COMPANY database. The diagrammatic notation is introduced gradually throughout </tspan><tspan y="567.36679" x="62.137796 64.76579 69.454799 71.3268 75.4488 77.8878 82.1988 86.8878 91.3878 96.076808 98.7048 103.39381 106.21081 108.64981 113.14981 117.83881 122.52782 124.96682 126.83882 130.96082 133.39981 137.5218 142.2108 149.1498 156.08879 160.58879 163.40579 165.27779 168.84178 173.53078 178.21977 180.65877 182.53076 187.21976 189.65876 194.71675 196.58875 201.46675 206.15575 208.97275 213.66175 216.10074 221.34774 222.85074 228.09774 233.34473">this chapter and is summarized in Figure 3.14.</tspan></text>
<path transform="matrix(1,0,0,1,-62,-154.88977)" stroke-width=".5" stroke-linecap="butt" stroke-miterlimit="4" stroke-linejoin="miter" fill="none" stroke="#201d1e" d="M 497.137 577.562 L 62.137 577.562 "/>
</g>
</g>
</g>
</g>
</svg>
